<?xml version="1.0" standalone="no"?>
<!DOCTYPE svg PUBLIC "-//W3C//DTD SVG 20010904//EN"
 "http://www.w3.org/TR/2001/REC-SVG-20010904/DTD/svg10.dtd">
<svg version="1.0" xmlns="http://www.w3.org/2000/svg"
 width="500.000000pt" height="500.000000pt" viewBox="0 0 500.000000 500.000000"
 preserveAspectRatio="xMidYMid meet">

<g transform="translate(0.000000,500.000000) scale(0.100000,-0.100000)"
fill="#000000" stroke="none">
<path d="M4082 3350 c-98 -26 -160 -61 -228 -130 -127 -129 -149 -180 -286
-658 -62 -215 -115 -392 -118 -392 -3 1 -84 176 -180 390 -96 214 -179 390
-185 390 -5 0 -57 -115 -115 -255 l-105 -254 -3 214 c-3 236 7 312 52 408 52
108 132 173 261 212 l50 15 -78 -4 c-191 -10 -348 -157 -393 -364 -10 -50 -14
-150 -14 -386 0 -176 -2 -317 -5 -314 -9 9 -215 600 -215 617 0 29 39 71 66
71 13 0 24 5 24 10 0 7 -174 10 -502 9 -402 -1 -494 -3 -460 -13 25 -6 54 -23
68 -39 l24 -28 0 -397 c0 -433 4 -471 57 -562 64 -109 196 -195 345 -225 94
-18 241 -19 326 -1 34 7 62 10 62 7 0 -16 -74 -114 -78 -103 -2 7 2 19 8 27
11 13 4 15 -46 14 -33 0 -53 -3 -46 -6 8 -3 12 -27 12 -68 0 -57 -3 -64 -26
-80 l-26 -17 -72 69 c-123 120 -111 125 -108 -49 2 -104 -1 -154 -9 -164 -10
-12 -3 -14 42 -14 41 0 50 3 41 12 -7 7 -12 22 -12 35 0 19 5 23 31 23 18 0
49 5 71 12 39 11 39 11 88 -37 l50 -49 0 73 0 73 48 43 c26 25 49 44 53 45 3
0 23 -49 44 -110 22 -60 42 -110 45 -110 3 0 22 45 44 100 21 55 42 100 45
100 4 0 27 -44 51 -97 47 -107 60 -127 60 -98 0 32 81 279 97 298 15 16 14 17
-22 17 -28 0 -36 -3 -28 -11 8 -8 4 -35 -13 -96 -13 -47 -25 -87 -27 -90 -2
-2 -23 40 -47 92 -24 52 -46 95 -50 95 -4 0 -24 -43 -45 -95 -21 -52 -40 -95
-41 -95 -1 0 -16 38 -33 84 l-30 84 44 78 c25 43 45 83 45 89 0 6 16 27 36 46
74 70 116 167 129 294 6 54 23 108 77 235 38 91 73 169 77 173 4 4 95 -186
202 -423 106 -236 197 -430 201 -430 4 0 8 19 8 43 0 23 7 70 15 102 37 141
369 1157 401 1224 44 94 112 190 167 235 58 48 163 95 226 103 28 3 51 10 51
14 0 16 -123 8 -198 -11z m-1903 -469 c17 -13 38 -35 46 -51 8 -16 97 -251
196 -521 130 -352 179 -497 172 -509 -5 -8 -36 -28 -69 -45 -54 -27 -68 -30
-159 -30 -88 0 -107 4 -156 28 -63 31 -126 93 -159 157 -44 86 -50 151 -50
557 l0 381 27 32 c24 30 31 32 74 28 26 -3 60 -15 78 -27z m110 -1465 c-3 -3
-22 -12 -42 -21 l-37 -15 0 62 0 63 42 -42 c23 -23 40 -45 37 -47z"/>
<path d="M1760 1483 c6 -143 15 -168 65 -189 41 -17 125 -18 159 -2 49 21 59
52 65 190 l6 128 -29 0 c-24 0 -26 -2 -16 -15 8 -10 11 -50 8 -130 l-3 -117
-34 -30 c-28 -25 -39 -29 -69 -24 -69 11 -77 29 -77 181 l0 135 -40 0 -40 0 5
-127z"/>
<path d="M2998 1598 c17 -17 17 -304 0 -311 -7 -3 14 -6 47 -6 46 -1 56 2 47
11 -8 8 -12 57 -12 155 l0 143 28 0 c35 0 48 -9 60 -41 15 -38 3 -79 -27 -97
l-27 -15 34 -65 c41 -76 69 -92 166 -92 54 0 64 3 60 15 -4 9 -1 29 6 45 12
28 16 30 70 30 54 0 58 -2 70 -30 7 -16 10 -36 6 -45 -4 -12 5 -15 56 -15 52
0 59 2 45 13 -9 6 -47 81 -86 166 l-69 154 -15 -34 c-8 -19 -40 -92 -72 -162
-66 -147 -76 -153 -133 -77 -18 25 -42 55 -54 68 -11 12 -19 24 -17 25 2 1 13
7 24 13 60 33 51 128 -15 151 -48 16 -208 17 -192 1z m479 -150 l20 -53 -23
-3 c-13 -2 -35 -2 -48 0 l-24 3 22 52 c11 29 24 53 27 53 4 0 15 -24 26 -52z"/>
<path d="M3688 1598 c17 -17 17 -289 0 -306 -9 -9 1 -12 48 -11 32 0 53 3 47
6 -10 3 -13 44 -13 154 l0 149 29 0 c58 0 83 -86 38 -128 -13 -12 -30 -22 -38
-22 -12 0 -12 -2 1 -10 50 -32 130 18 130 83 0 70 -51 96 -184 97 -55 0 -67
-3 -58 -12z"/>
</g>
</svg>
